<svg xmlns="http://www.w3.org/2000/svg" viewBox="0 0 496 512">
  <!-- Spotify green background -->
  <path fill="#1ed760"
    d="M248 8C111.1 8 0 119.1 0 256s111.1 248 248 248 248-111.1 248-248S384.9 8 248 8Z"/>

  <!-- Clock group -->
  <g transform="translate(0 8) scale(1.0163934426)">
    <g transform="translate(0 -540.36)">

      <!-- Clock hands (white) -->
      <path fill="#ffffff"
        d="M351.1,846.96l-97.1-67.9v-116.7c0-5.5-4.5-10-10-10s-10,4.5-10,10v122
           c0,3.3,1.6,6.3,4.3,8.2l101.4,70.9c1.7,1.2,3.7,1.8,5.7,1.8
           c3.1,0,6.2-1.5,8.2-4.4C356.7,856.36,355.6,850.16,351.1,846.96z"/>

      <!-- Clock outline (Spotify black) -->
      <path fill="#191414"
        d="M416.4,611.96c-46.2-46.2-107.4-71.6-172.4-71.6s-126.2,25.4-172.4,71.6
           C25.4,658.16,0,719.36,0,784.36s25.4,126.2,71.6,172.4
           c46.2,46.2,107.4,71.6,172.4,71.6s126.2-25.4,172.4-71.6
           s71.6-107.4,71.6-172.4S462.6,658.16,416.4,611.96z
           M254,1008.16v-40.8c0-5.5-4.5-10-10-10s-10,4.5-10,10v40.8
           c-115.6-5.1-208.7-98.2-213.8-213.8H61c5.5,0,10-4.5,10-10
           s-4.5-10-10-10H20.2c5.1-115.6,98.2-208.7,213.8-213.8v40.8
           c0,5.5,4.5,10,10,10s10-4.5,10-10v-40.8
           c115.6,5.1,208.7,98.2,213.8,213.8H427c-5.5,0-10,4.5-10,10
           s4.5,10,10,10h40.8C462.7,909.96,369.6,1003.06,254,1008.16z"/>
    </g>
  </g>
</svg>
